# xmcd CD database file
#
# Track frame offsets:
#	150
#	22858
#	41175
#	59844
#	86904
#	103358
#	118717
#	141095
#	155080
#	174796
#
# Disc length: 2739 seconds
#
# Revision: 1
# Processed by: cddbd v1.5.2PL0 Copyright (c) Steve Scherf et al.
# Submitted via: CDex 1.70beta2
#
DISCID=8d0ab10a
DTITLE=Jim Rye and Joe Vazquez - Forget, Hell!
DYEAR=2009
DGENRE=Country
TTITLE0=Seminole Wind
TTITLE1=A Country Boy Can Survive
TTITLE2=The Night They Drove Old Dixie Down
TTITLE3=In My Own Way
TTITLE4=Beer For My Horses
TTITLE5=Big City
TTITLE6=Against The Wind
TTITLE7=Ain't That Lonely Yet
TTITLE8=Ireland
TTITLE9=Tuesday's Gone
EXTD=YEAR: 2009
EXTT0=
EXTT1=
EXTT2=
EXTT3=
EXTT4=
EXTT5=
EXTT6=
EXTT7=
EXTT8=
EXTT9=
PLAYORDER=
